<?xml version="1.0" encoding="utf-8"?>
<!-- Generator: Adobe Illustrator 19.0.0, SVG Export Plug-In . SVG Version: 6.00 Build 0)  -->
<svg version="1.1" id="Capa_1" xmlns="http://www.w3.org/2000/svg" xmlns:xlink="http://www.w3.org/1999/xlink" x="0px" y="0px"
	 viewBox="-243 245 512 512" style="enable-background:new -243 245 512 512;" xml:space="preserve">
<style type="text/css">
	.st0{fill:#FFFFFF;}
</style>
<g>
	<path class="st0" d="M-44.6,419.4L-84,458.8l-14.4-14.4c-5.9-5.9-15.4-5.9-21.2,0c-5.9,5.9-5.9,15.4,0,21.2l25,25
		c2.9,2.9,6.8,4.4,10.6,4.4s7.7-1.5,10.6-4.4l50-50c5.9-5.9,5.9-15.4,0-21.2C-29.3,413.5-38.7,413.5-44.6,419.4L-44.6,419.4z"/>
	<path class="st0" d="M-44.6,516.9L-84,556.3l-14.4-14.4c-5.9-5.9-15.4-5.9-21.2,0c-5.9,5.9-5.9,15.4,0,21.2l25,25
		c2.9,2.9,6.8,4.4,10.6,4.4s7.7-1.5,10.6-4.4l50-50c5.9-5.9,5.9-15.4,0-21.2C-29.3,511-38.7,511-44.6,516.9L-44.6,516.9z"/>
	<path class="st0" d="M-44.6,614.4L-84,653.8l-14.4-14.4c-5.9-5.9-15.4-5.9-21.2,0c-5.9,5.9-5.9,15.4,0,21.2l25,25
		c2.9,2.9,6.8,4.4,10.6,4.4s7.7-1.5,10.6-4.4l50-50c5.9-5.9,5.9-15.4,0-21.2C-29.3,608.5-38.7,608.5-44.6,614.4z"/>
	<path class="st0" d="M255.6,487.6L199,431c-5.9-5.9-15.4-5.9-21.2,0L156,452.9V327c0-8.3-6.7-15-15-15H56v-20c0-8.3-6.7-15-15-15
		H16v-17c0-8.3-6.7-15-15-15h-80c-8.3,0-15,6.7-15,15v17h-25c-8.3,0-15,6.7-15,15v20h-85c-8.3,0-15,6.7-15,15v415
		c0,8.3,6.7,15,15,15h360c8.3,0,15-6.7,15-15V608.4l99.6-99.6C261.5,503,261.5,493.5,255.6,487.6L255.6,487.6z M-104,307h25
		c8.3,0,15-6.7,15-15v-17h50v17c0,8.3,6.7,15,15,15h25v40h-130V307z M126,727h-330V342h70v20c0,8.3,6.7,15,15,15H41
		c8.3,0,15-6.7,15-15v-20h70v140.9l-96.7,96.7v0c-1.6,1.6-2.9,3.6-3.6,5.9l-28.3,84.9c-1.8,5.4-0.4,11.3,3.6,15.4
		c2.9,2.9,6.7,4.4,10.6,4.4c1.6,0,3.2-0.3,4.7-0.8l84.9-28.3c2.2-0.7,4.2-2,5.9-3.6h0l18.9-18.9V727z M68.7,640.2l-33.4,11.1
		l11.1-33.4L68.7,640.2z M130.4,591.6C130.4,591.6,130.4,591.6,130.4,591.6l-33.9,33.9l-35.4-35.4l127.3-127.3l35.4,35.4
		L130.4,591.6z"/>
	<circle class="st0" cx="-159" cy="475" r="15"/>
	<circle class="st0" cx="-159" cy="572.5" r="15"/>
	<circle class="st0" cx="-159" cy="670" r="15"/>
</g>
</svg>
